<?xml version="1.0" encoding="UTF-8"?>
<svg version="1.1" xmlns="http://www.w3.org/2000/svg" width="200" height="200">
<path d="M0 0 C66 0 132 0 200 0 C200 66 200 132 200 200 C134 200 68 200 0 200 C0 134 0 68 0 0 Z " fill="#FEFEFE" transform="translate(0,0)"/>
<path d="M0 0 C2 1 2 1 2.77632141 2.83485413 C3.14674812 4.03820656 3.14674812 4.03820656 3.5246582 5.26586914 C3.80867996 6.17514664 4.09270172 7.08442413 4.3853302 8.02125549 C4.68742905 9.01584274 4.98952789 10.01042999 5.30078125 11.03515625 C5.61903366 12.06120468 5.93728607 13.08725311 6.2651825 14.14439392 C7.28816712 17.4482511 8.30049346 20.7552655 9.3125 24.0625 C9.98301626 26.23524457 10.65423222 28.40777333 11.32617188 30.58007812 C12.63569706 34.81710914 13.94191887 39.05513316 15.24487305 43.29418945 C20.40724443 60.08482342 25.76974792 76.80983701 31.13696289 93.53588867 C38.00125107 114.93207104 38.00125107 114.93207104 41.05834961 124.96508789 C42.19751456 128.63658373 43.38428278 132.29129632 44.578125 135.9453125 C44.79722031 136.61695938 45.01631561 137.28860626 45.24205017 137.98060608 C46.14124986 140.73563295 47.0411056 143.49041742 47.94726562 146.24316406 C48.61986569 148.28843666 49.28694974 150.33543976 49.953125 152.3828125 C50.34661133 153.58309082 50.74009766 154.78336914 51.14550781 156.02001953 C52 159 52 159 52 162 C48.03205044 160.2144227 44.55743767 157.72487296 41 155.25 C40.30575928 154.76974365 39.61151855 154.2894873 38.89624023 153.79467773 C36.59484252 152.20023039 34.29690982 150.60090512 32 149 C31.19836426 148.44135254 30.39672852 147.88270508 29.57080078 147.30712891 C19.9468008 140.59408015 10.34116631 133.85456713 0.76806641 127.0690918 C-3.91583065 123.75100148 -8.6387621 120.49620239 -13.41015625 117.3046875 C-13.93480469 116.87414062 -14.45945312 116.44359375 -15 116 C-15 115.34 -15 114.68 -15 114 C-12.94587752 112.96241251 -10.88130395 111.9454966 -8.8125 110.9375 C-7.66394531 110.36902344 -6.51539062 109.80054687 -5.33203125 109.21484375 C-1.70162177 107.89121263 -0.60474175 107.94853072 3 109 C5.09643555 110.19921875 5.09643555 110.19921875 7.13671875 111.6875 C7.87857422 112.22117187 8.62042969 112.75484375 9.38476562 113.3046875 C10.14466797 113.86414063 10.90457031 114.42359375 11.6875 115 C13.21153062 116.10514501 14.73623797 117.20935757 16.26171875 118.3125 C16.93162842 118.80363281 17.60153809 119.29476562 18.29174805 119.80078125 C19.99388474 121.05856117 19.99388474 121.05856117 22 122 C20.04807002 113.77165292 17.74567504 105.72628435 15.125 97.6875 C14.77203857 96.59300537 14.41907715 95.49851074 14.05541992 94.37084961 C12.1850012 88.58585976 10.27047909 82.81833694 8.3125 77.0625 C5.5287188 68.80584284 3.26406553 60.41076259 1 52 C0.01 54.31 -0.98 56.62 -2 59 C-7.28 59 -12.56 59 -18 59 C-17.37570117 55.25420702 -16.85788706 52.19737401 -15.72265625 48.69140625 C-15.46105713 47.87623535 -15.19945801 47.06106445 -14.92993164 46.22119141 C-14.6436792 45.34382324 -14.35742676 44.46645508 -14.0625 43.5625 C-13.76400146 42.63614746 -13.46550293 41.70979492 -13.15795898 40.75537109 C-12.48864567 38.67991049 -11.81738445 36.60507741 -11.14453125 34.53076172 C-9.8623732 30.5754354 -8.58693181 26.61797705 -7.3125 22.66015625 C-4.87919201 15.10541422 -2.44087195 7.55230154 0 0 Z " fill="#F432A8" transform="translate(96,13)"/>
<path d="M0 0 C27.72 0 55.44 0 84 0 C86.35930891 6.29149042 87.44226441 9.75336136 88 16 C83.71 16.33 79.42 16.66 75 17 C74.62713867 18.18964355 74.25427734 19.37928711 73.87011719 20.60498047 C72.47251888 25.06048654 71.06976491 29.51435586 69.66552734 33.96777344 C69.06095118 35.88758489 68.45773402 37.80782491 67.85595703 39.72851562 C66.9857574 42.50507299 66.11051952 45.28000112 65.234375 48.0546875 C64.83880402 49.32250565 64.83880402 49.32250565 64.4352417 50.61593628 C62.55917987 56.53417222 60.35840058 62.25644269 58 68 C62.95 68 67.9 68 73 68 C69.2445034 71.7554966 66.08733797 74.51731735 61.8125 77.5 C60.58276653 78.36247365 59.3536318 79.22580144 58.125 80.08984375 C57.46757813 80.55116699 56.81015625 81.01249023 56.1328125 81.48779297 C53.80272874 83.1398693 51.49375827 84.81874022 49.1875 86.50390625 C47.97356567 87.38949219 47.97356567 87.38949219 46.73510742 88.29296875 C45.13962526 89.45834764 43.54598655 90.62625521 41.9543457 91.796875 C41.22304443 92.32925781 40.49174316 92.86164063 39.73828125 93.41015625 C39.08899658 93.88590088 38.43971191 94.36164551 37.77075195 94.85180664 C36 96 36 96 33 97 C34.67839197 89.87557576 36.81735537 82.92196282 39 75.9375 C39.39082764 74.68195313 39.78165527 73.42640625 40.18432617 72.1328125 C43.56509474 61.29642494 47.03956837 50.49045848 50.54882812 39.69506836 C53.10609281 31.81804227 55.58271538 23.92117065 58 16 C51.07 16 44.14 16 37 16 C38.98 20.29 40.96 24.58 43 29 C39.59510736 29 38.86644021 28.47179939 36.1484375 26.578125 C35.38732666 26.05275146 34.62621582 25.52737793 33.84204102 24.98608398 C33.02791748 24.41317627 32.21379395 23.84026855 31.375 23.25 C30.53702881 22.66742432 29.69905762 22.08484863 28.83569336 21.48461914 C27.0895099 20.26857691 25.34564528 19.04919878 23.60400391 17.82666016 C21.11046669 16.07749033 18.60909414 14.34015618 16.10546875 12.60546875 C14.5906918 11.55013057 13.07634913 10.49416869 11.5625 9.4375 C10.8597998 8.94991211 10.15709961 8.46232422 9.43310547 7.95996094 C8.77584473 7.49750977 8.11858398 7.03505859 7.44140625 6.55859375 C6.87107666 6.15954834 6.30074707 5.76050293 5.71313477 5.34936523 C3.66367316 3.73508929 1.84474655 1.84474655 0 0 Z " fill="#6D94CA" transform="translate(9,78)"/>
<path d="M0 0 C20.13 0 40.26 0 61 0 C55.37740806 5.62259194 55.37740806 5.62259194 52.1015625 7.9453125 C51.02165039 8.71742065 51.02165039 8.71742065 49.91992188 9.50512695 C49.16259766 10.03968506 48.40527344 10.57424316 47.625 11.125 C46.0229519 12.26624571 44.42139801 13.40818548 42.8203125 14.55078125 C41.61616699 15.40857178 41.61616699 15.40857178 40.38769531 16.28369141 C38.09375311 17.93260896 35.82045191 19.60559997 33.5546875 21.29296875 C32.86938965 21.80263184 32.1840918 22.31229492 31.47802734 22.83740234 C30.18147584 23.80429498 28.88743017 24.77455896 27.59619141 25.74853516 C23.2206731 29 23.2206731 29 21 29 C21.45445964 27.58208592 21.91374944 26.16571954 22.375 24.75 C22.75785156 23.56664062 22.75785156 23.56664062 23.1484375 22.359375 C24 20 24 20 26 16 C18.74 16 11.48 16 4 16 C0 4.5 0 4.5 0 0 Z " fill="#4E5F82" transform="translate(121,78)"/>
<path d="M0 0 C0.66 1.32 1.32 2.64 2 4 C2.66 4 3.32 4 4 4 C7.94235377 10.04012 10.00023785 16.46927938 12.14697266 23.32617188 C12.7538463 25.26227078 13.37400588 27.19374214 13.99609375 29.125 C17 38.58580772 17 38.58580772 17 42 C13.03204782 40.21442152 9.55745255 37.72486435 6 35.25 C5.31301025 34.77481934 4.62602051 34.29963867 3.91821289 33.81005859 C-4.34550373 28.0852777 -12.59809973 22.34185985 -20.80517578 16.53613281 C-22.23879616 15.53275802 -23.68480323 14.54679158 -25.14404297 13.58105469 C-26.81332529 12.45926346 -28.41509438 11.23814103 -30 10 C-30 9.01 -30 8.02 -30 7 C-30.99 6.67 -31.98 6.34 -33 6 C-29.66704405 4.86155212 -28.02200679 5.14370569 -24.8125 6.5 C-19.94865852 8.21430478 -15.95435404 8.62222212 -11 7 C-8.73599246 5.60524492 -6.74561554 4.10324293 -4.7265625 2.375 C-3 1 -3 1 0 0 Z " fill="#502840" transform="translate(131,133)"/>
<path d="M0 0 C2 1 2 1 3.03735352 3.6328125 C3.39756592 4.78523438 3.75777832 5.93765625 4.12890625 7.125 C4.32346909 7.74592529 4.51803192 8.36685059 4.7184906 9.0065918 C5.12986083 10.32694303 5.53730709 11.64852214 5.94116211 12.97119141 C6.55261308 14.96771697 7.18055034 16.95847921 7.81054688 18.94921875 C9.89333415 25.6347865 11.56205047 31.99280754 12 39 C11.01 39.66 10.02 40.32 9 41 C10.485 41.495 10.485 41.495 12 42 C10.515 42.495 10.515 42.495 9 43 C8.67 44.65 8.34 46.3 8 48 C5 48 5 48 2 46 C1.67 46.99 1.34 47.98 1 49 C-0.9375 50.0625 -0.9375 50.0625 -3 51 C-3.66 51.66 -4.32 52.32 -5 53 C-5.99 53 -6.98 53 -8 53 C-8 52.34 -8 51.68 -8 51 C-9.32 51 -10.64 51 -12 51 C-12.66 50.67 -13.32 50.34 -14 50 C-14 49.01 -14 48.02 -14 47 C-13.01 46.505 -13.01 46.505 -12 46 C-11.75558053 44.08514546 -11.75558053 44.08514546 -11.75 41.6875 C-10.7194252 27.53549963 -4.57104745 13.34907663 0 0 Z " fill="#7B2758" transform="translate(96,13)"/>
<path d="M0 0 C0.66 0.33 1.32 0.66 2 1 C2 1.99 2 2.98 2 4 C3.65 3.01 5.3 2.02 7 1 C7.495 1.99 7.495 1.99 8 3 C8.61875 2.2265625 8.61875 2.2265625 9.25 1.4375 C11 0 11 0 12.98046875 0.140625 C15 1 15 1 16.16015625 2.86328125 C18.59599906 9.47485459 20.44155294 16.12866522 22 23 C21.34 22.67 20.68 22.34 20 22 C20 21.34 20 20.68 20 20 C19.01 20.33 18.02 20.66 17 21 C16.505 19.02 16.505 19.02 16 17 C12.66878711 18.07774535 10.88601328 19.10868501 8.3125 21.5625 C4.36881816 24.97024559 0.07826261 25.2969299 -5 25 C-7.49736055 24.39745019 -9.80234592 23.64120868 -12.1875 22.69140625 C-13.98812661 21.88119534 -13.98812661 21.88119534 -16 22 C-15.34 22.33 -14.68 22.66 -14 23 C-14.33 23.66 -14.66 24.32 -15 25 C-19.00920713 22.34694503 -23.00831679 19.67934901 -27 17 C-27.77730469 16.48050781 -28.55460937 15.96101562 -29.35546875 15.42578125 C-30.94139461 14.33688782 -32.47775814 13.1762778 -34 12 C-34 11.34 -34 10.68 -34 10 C-31.94587752 8.96241251 -29.88130395 7.9454966 -27.8125 6.9375 C-26.66394531 6.36902344 -25.51539062 5.80054687 -24.33203125 5.21484375 C-20.70162177 3.89121263 -19.60474175 3.94853072 -16 5 C-13.90356445 6.19921875 -13.90356445 6.19921875 -11.86328125 7.6875 C-11.12142578 8.22117187 -10.37957031 8.75484375 -9.61523438 9.3046875 C-8.85533203 9.86414063 -8.09542969 10.42359375 -7.3125 11 C-5.78846938 12.10514501 -4.26376203 13.20935757 -2.73828125 14.3125 C-1.73341675 15.04919922 -1.73341675 15.04919922 -0.70825195 15.80078125 C0.99388474 17.05856117 0.99388474 17.05856117 3 18 C2.01 12.06 1.02 6.12 0 0 Z " fill="#8C2763" transform="translate(115,117)"/>
<path d="M0 0 C1.86621094 0.65258789 1.86621094 0.65258789 4 2 C5.18847656 4.47436523 5.18847656 4.47436523 6.140625 7.55859375 C6.48867187 8.66654297 6.83671875 9.77449219 7.1953125 10.91601562 C7.54335937 12.07810547 7.89140625 13.24019531 8.25 14.4375 C8.61351562 15.59572266 8.97703125 16.75394531 9.3515625 17.94726562 C12 26.51486137 12 26.51486137 12 30 C9.29271944 28.70398127 6.82266972 27.28157309 4.35546875 25.57421875 C3.67806641 25.10693359 3.00066406 24.63964844 2.30273438 24.15820312 C1.60470703 23.67287109 0.90667969 23.18753906 0.1875 22.6875 C-0.49892578 22.21376953 -1.18535156 21.74003906 -1.89257812 21.25195312 C-3.93284959 19.8409423 -5.96657037 18.42084625 -8 17 C-8.64960693 16.55325928 -9.29921387 16.10651855 -9.96850586 15.64624023 C-14.12256181 12.75416216 -16.9523354 9.97119932 -20 6 C-16.20442119 6 -14.37097383 6.50178941 -11 8 C-11 7.34 -11 6.68 -11 6 C-10.34 6.33 -9.68 6.66 -9 7 C-9.33 7.66 -9.66 8.32 -10 9 C-8.70756532 7.8758824 -7.41607925 6.75067408 -6.125 5.625 C-5.40570313 4.99851563 -4.68640625 4.37203125 -3.9453125 3.7265625 C-2.5923402 2.52573166 -1.2791655 1.2791655 0 0 Z " fill="#352D30" transform="translate(136,145)"/>
<path d="M0 0 C3.72245768 5.58368652 5.53020564 12.28406188 5 19 C3.9275 18.731875 2.855 18.46375 1.75 18.1875 C0.5125 18.125625 -0.725 18.06375 -2 18 C-4.49210521 20.30068019 -4.49210521 20.30068019 -6 23 C-6.99 22.67 -7.98 22.34 -9 22 C-9.33 21.01 -9.66 20.02 -10 19 C-10.99 21.31 -11.98 23.62 -13 26 C-18.28 26 -23.56 26 -29 26 C-27.875 19.25 -27.875 19.25 -26.80859375 15.9140625 C-26.58623047 15.21152344 -26.36386719 14.50898437 -26.13476562 13.78515625 C-25.78961914 12.71587891 -25.78961914 12.71587891 -25.4375 11.625 C-25.08655273 10.52091797 -25.08655273 10.52091797 -24.72851562 9.39453125 C-24.1559972 7.59518762 -23.57850686 5.79742723 -23 4 C-22.15937603 7.09773244 -21.91064799 9.78332751 -22 13 C-22.99 13.33 -23.98 13.66 -25 14 C-24.01 15.485 -24.01 15.485 -23 17 C-22.34 16.67 -21.68 16.34 -21 16 C-21 16.66 -21 17.32 -21 18 C-20.34 18 -19.68 18 -19 18 C-19 18.66 -19 19.32 -19 20 C-17.88625 19.319375 -17.88625 19.319375 -16.75 18.625 C-14 17 -14 17 -11.75 15.9375 C-9.81946715 15.11996415 -9.81946715 15.11996415 -9 13 C-7.35 13.66 -5.7 14.32 -4 15 C-3.71125 14.195625 -3.4225 13.39125 -3.125 12.5625 C-2 10 -2 10 0 9 C-0.66 8.67 -1.32 8.34 -2 8 C-1.33333333 6.66666667 -0.66666667 5.33333333 0 4 C0 2.68 0 1.36 0 0 Z " fill="#B42B7C" transform="translate(107,46)"/>
<path d="M0 0 C2 1 2 1 3.32421875 4.421875 C3.78691078 5.86195395 4.24097216 7.30482728 4.6875 8.75 C4.92533203 9.46671875 5.16316406 10.1834375 5.40820312 10.921875 C6.65508243 14.90018784 7.56089927 17.95322413 6 22 C4.58203125 23.703125 4.58203125 23.703125 2.8125 25.25 C-1.23460732 29.03789177 -4.09403744 33.30575278 -7 38 C-7.99 37.67 -8.98 37.34 -10 37 C-9.70422995 28.4288562 -7.2507969 20.9228386 -4.4375 12.875 C-4.01275391 11.63234375 -3.58800781 10.3896875 -3.15039062 9.109375 C-2.10981191 6.06948213 -1.05952651 3.03332958 0 0 Z " fill="#342E30" transform="translate(96,13)"/>
<path d="M0 0 C5.94 0 11.88 0 18 0 C18 0.33 18 0.66 18 1 C16.824375 1.12375 16.824375 1.12375 15.625 1.25 C12.85250896 1.72806339 12.85250896 1.72806339 11.6875 4.0625 C11.460625 4.701875 11.23375 5.34125 11 6 C12.32 6.66 13.64 7.32 15 8 C15 8.33 15 8.66 15 9 C16.216875 9.144375 17.43375 9.28875 18.6875 9.4375 C21.09738317 9.73076621 23.37859489 10.08604429 25.75 10.625 C28.17069839 11.02844973 29.69113852 10.76962049 32 10 C32 10.66 32 11.32 32 12 C32.639375 12.226875 33.27875 12.45375 33.9375 12.6875 C34.9584375 13.3371875 34.9584375 13.3371875 36 14 C36.36871088 15.65919896 36.69595322 17.32774271 37 19 C37.64896826 20.7853143 38.33687105 22.55694608 39.0625 24.3125 C39.60583984 25.63701172 39.60583984 25.63701172 40.16015625 26.98828125 C40.43730469 27.65214844 40.71445312 28.31601563 41 29 C35.86356593 27.36890358 31.95774708 24.23596206 27.6875 21.0625 C20.87541018 16.05715582 13.99585656 11.19028591 6.9519043 6.51586914 C3.97446434 4.50872296 2.01666755 3.02500132 0 0 Z " fill="#58719D" transform="translate(11,79)"/>
<path d="M0 0 C11.22 0 22.44 0 34 0 C36.35930891 6.29149042 37.44226441 9.75336136 38 16 C37.09636719 16.06058594 36.19273438 16.12117188 35.26171875 16.18359375 C33.49248047 16.30927734 33.49248047 16.30927734 31.6875 16.4375 C29.92986328 16.55931641 29.92986328 16.55931641 28.13671875 16.68359375 C24.97409042 16.8867371 24.97409042 16.8867371 22 18 C21.1875 14.8125 21.1875 14.8125 21 11 C23.4375 8.3125 23.4375 8.3125 26 6 C26 4.68 26 3.36 26 2 C13.13 1.505 13.13 1.505 0 1 C0 0.67 0 0.34 0 0 Z " fill="#7FAFF6" transform="translate(59,78)"/>
<path d="M0 0 C2.33177975 0.34403308 4.66487041 0.67949202 7 1 C7 1.99 7 2.98 7 4 C4.78413521 5.80113074 2.60886347 7.40870322 0.25 9 C-1.01580327 9.87474209 -2.28143273 10.74973576 -3.546875 11.625 C-4.14693359 12.03363281 -4.74699219 12.44226563 -5.36523438 12.86328125 C-6.71715569 13.80332689 -8.02882684 14.80096586 -9.328125 15.8125 C-11 17 -11 17 -13 17 C-12.54554036 15.58208592 -12.08625056 14.16571954 -11.625 12.75 C-11.24214844 11.56664063 -11.24214844 11.56664063 -10.8515625 10.359375 C-10 8 -10 8 -8 4 C-15.26 4 -22.52 4 -30 4 C-30.33 3.01 -30.66 2.02 -31 1 C-29.68 1 -28.36 1 -27 1 C-23.81088806 0.88740903 -20.62453656 0.72268863 -17.4375 0.5625 C-16.57447266 0.52318359 -15.71144531 0.48386719 -14.82226562 0.44335938 C-13.57799805 0.38051758 -13.57799805 0.38051758 -12.30859375 0.31640625 C-11.55376709 0.27974854 -10.79894043 0.24309082 -10.02124023 0.20532227 C-2.47117552 -0.5616308 -2.47117552 -0.5616308 0 0 Z " fill="#6789BF" transform="translate(155,90)"/>
<path d="M0 0 C1.29099861 0.00022659 1.29099861 0.00022659 2.608078 0.00045776 C3.99571098 0.01594162 3.99571098 0.01594162 5.41137695 0.03173828 C6.36156204 0.03456818 7.31174713 0.03739807 8.29072571 0.04031372 C11.32716435 0.05151363 14.36330863 0.0766179 17.3996582 0.10205078 C19.45759665 0.11208082 21.51553972 0.12120663 23.57348633 0.12939453 C28.6198238 0.15145236 33.66594108 0.18598096 38.7121582 0.22705078 C38.7121582 1.21705078 38.7121582 2.20705078 38.7121582 3.22705078 C36.2121582 5.53955078 36.2121582 5.53955078 32.7121582 7.22705078 C29.88580383 7.00667227 27.37741226 6.1598897 24.7121582 5.22705078 C20.36424741 4.06053813 17.1586121 4.59056242 12.7121582 5.22705078 C9.90245277 5.46818593 7.09017447 5.63241767 4.2746582 5.78955078 C3.54311523 5.83273438 2.81157227 5.87591797 2.05786133 5.92041016 C0.27611105 6.025219 -1.50584582 6.12650599 -3.2878418 6.22705078 C-3.2878418 5.56705078 -3.2878418 4.90705078 -3.2878418 4.22705078 C-4.2778418 4.55705078 -5.2678418 4.88705078 -6.2878418 5.22705078 C-6.6178418 4.23705078 -6.9478418 3.24705078 -7.2878418 2.22705078 C-4.17476243 0.15166454 -3.52435985 -0.02067073 0 0 Z " fill="#577099" transform="translate(130.287841796875,85.77294921875)"/>
<path d="M0 0 C0.66 1.32 1.32 2.64 2 4 C2.66 4 3.32 4 4 4 C3.8125 5.8125 3.8125 5.8125 3 8 C0.09303401 10.14197494 -1.35521088 11 -5 11 C-5.99 11.33 -6.98 11.66 -8 12 C-9.72795352 12.06802967 -11.45835365 12.08495645 -13.1875 12.0625 C-14.08855469 12.05347656 -14.98960938 12.04445312 -15.91796875 12.03515625 C-16.60503906 12.02355469 -17.29210937 12.01195312 -18 12 C-18.66 13.32 -19.32 14.64 -20 16 C-23.58786447 14.34406255 -26.83783588 12.37162309 -30 10 C-30 9.01 -30 8.02 -30 7 C-30.99 6.67 -31.98 6.34 -33 6 C-29.66704405 4.86155212 -28.02200679 5.14370569 -24.8125 6.5 C-19.94865852 8.21430478 -15.95435404 8.62222212 -11 7 C-8.73599246 5.60524492 -6.74561554 4.10324293 -4.7265625 2.375 C-3 1 -3 1 0 0 Z " fill="#6D244F" transform="translate(131,133)"/>
<path d="M0 0 C1.58246707 -0.08153933 3.16616273 -0.13943557 4.75 -0.1875 C6.07257813 -0.23970703 6.07257813 -0.23970703 7.421875 -0.29296875 C10.44671583 0.05076316 11.75583602 1.00227459 14 3 C13.67 3.33 13.34 3.66 13 4 C13.061875 5.8253125 13.061875 5.8253125 13.125 7.6875 C13.19165071 11.82724975 12.05670243 14.38020372 10 18 C9.7834375 19.11375 9.7834375 19.11375 9.5625 20.25 C9.376875 20.8275 9.19125 21.405 9 22 C7.66666667 22.66666667 6.33333333 23.33333333 5 24 C4.19471111 26.05000871 4.19471111 26.05000871 4 28 C4.66 28 5.32 28 6 28 C6.02712066 29.43739513 6.04645067 30.87493863 6.0625 32.3125 C6.07410156 33.11300781 6.08570312 33.91351563 6.09765625 34.73828125 C6 37 6 37 5 40 C4.65772583 41.33106622 4.32248257 42.66400079 4 44 C2.35 42.68 0.7 41.36 -1 40 C-0.690625 39.236875 -0.38125 38.47375 -0.0625 37.6875 C0.84255614 34.5464228 1.16588904 32.21098328 1.34375 29 C1.86814443 22.76874761 3.55700452 17.20984808 5.5625 11.3125 C5.89185547 10.31283203 6.22121094 9.31316406 6.56054688 8.28320312 C7.36326681 5.85177607 8.17645548 3.42443551 9 1 C6.03 1 3.06 1 0 1 C0 0.67 0 0.34 0 0 Z " fill="#749ED9" transform="translate(58,93)"/>
<path d="M0 0 C1.1484375 1.546875 1.1484375 1.546875 2 4 C1.32617441 6.58983401 0.61297396 8.79289223 -0.375 11.25 C-1.24125 13.4775 -2.1075 15.705 -3 18 C1.95 18 6.9 18 12 18 C6.20689655 23.79310345 6.20689655 23.79310345 3 26.25 C2.360625 26.75015625 1.72125 27.2503125 1.0625 27.765625 C-1.28557532 29.1709125 -3.30815046 29.60743861 -6 30 C-6.56776223 11.68441096 -6.56776223 11.68441096 -3 4 C-2.34 3.67 -1.68 3.34 -1 3 C-0.67 2.01 -0.34 1.02 0 0 Z " fill="#75A5E4" transform="translate(70,128)"/>
<path d="M0 0 C0.99 0.495 0.99 0.495 2 1 C2 1.99 2 2.98 2 4 C3.65 3.01 5.3 2.02 7 1 C7.33 1.66 7.66 2.32 8 3 C8.4125 2.484375 8.825 1.96875 9.25 1.4375 C11 0 11 0 12.96484375 0.1015625 C15 1 15 1 16.30078125 3.21484375 C16.63464844 4.11332031 16.96851563 5.01179688 17.3125 5.9375 C17.65925781 6.83339844 18.00601563 7.72929688 18.36328125 8.65234375 C19 11 19 11 18 13 C16.68 12.34 15.36 11.68 14 11 C13.67 12.32 13.34 13.64 13 15 C12.34 15 11.68 15 11 15 C11 14.01 11 13.02 11 12 C10.401875 12.33 9.80375 12.66 9.1875 13 C7 14 7 14 4 14 C3.67 14.66 3.34 15.32 3 16 C2.01 10.72 1.02 5.44 0 0 Z " fill="#BE3285" transform="translate(115,117)"/>
<path d="M0 0 C1.82388613 0.45672272 3.63439639 0.96710823 5.4375 1.5 C11.29404545 3.05005574 16.07509102 3.08798107 22 2 C22.66 2.99 23.32 3.98 24 5 C21.13824429 5.8179983 18.61867404 6.11852346 15.64624023 6.09765625 C14.7953331 6.09435303 13.94442596 6.0910498 13.06773376 6.08764648 C12.15721756 6.07934814 11.24670135 6.0710498 10.30859375 6.0625 C9.36693863 6.05871338 8.42528351 6.05492676 7.45509338 6.05102539 C4.44918232 6.03881643 1.44336746 6.0201849 -1.5625 6 C-5.52213282 5.97345709 -9.48171815 5.95343905 -13.44140625 5.9375 C-14.35394669 5.92920166 -15.26648712 5.92090332 -16.2066803 5.91235352 C-17.05443527 5.90905029 -17.90219025 5.90574707 -18.77563477 5.90234375 C-19.52079849 5.89710693 -20.26596222 5.89187012 -21.03370667 5.88647461 C-23.21475402 5.92657347 -23.21475402 5.92657347 -26 7 C-26.33 5.68 -26.66 4.36 -27 3 C-24.01477895 2.00492632 -21.8353772 1.81927964 -18.7109375 1.71875 C-17.68742188 1.68136719 -16.66390625 1.64398438 -15.609375 1.60546875 C-13.44532078 1.53490176 -11.28125819 1.46459109 -9.1171875 1.39453125 C-7.58578125 1.33845703 -7.58578125 1.33845703 -6.0234375 1.28125 C-5.08419434 1.25095703 -4.14495117 1.22066406 -3.17724609 1.18945312 C-1.02274551 1.23712805 -1.02274551 1.23712805 0 0 Z " fill="#506387" transform="translate(149,81)"/>
<path d="M0 0 C1.22244667 0.00333092 1.22244667 0.00333092 2.46958923 0.00672913 C3.39046829 0.00680466 4.31134735 0.00688019 5.26013184 0.00695801 C6.2611644 0.01211929 7.26219696 0.01728058 8.29356384 0.02259827 C9.31316696 0.02401321 10.33277008 0.02542816 11.38327026 0.02688599 C14.65417867 0.03250355 17.92501972 0.04505902 21.19590759 0.05775452 C23.40749515 0.06276725 25.61908377 0.06733055 27.83067322 0.07142639 C33.26494116 0.08247868 38.69916957 0.09923389 44.13340759 0.12025452 C44.79340759 1.44025452 45.45340759 2.76025452 46.13340759 4.12025452 C40.02806645 5.10498696 35.31336438 5.03481559 29.29747009 3.59291077 C25.62013158 2.78973755 21.89514971 3.19296702 18.15293884 3.33900452 C16.98955994 3.3841217 15.82618103 3.42923889 14.62754822 3.47572327 C13.41260681 3.52341858 12.19766541 3.57111389 10.94590759 3.62025452 C9.71936462 3.66794983 8.49282166 3.71564514 7.22911072 3.76478577 C4.19718918 3.88275937 1.16528961 4.00127031 -1.86659241 4.12025452 C-2.19659241 3.13025452 -2.52659241 2.14025452 -2.86659241 1.12025452 C-1.86659241 0.12025452 -1.86659241 0.12025452 0 0 Z " fill="#465776" transform="translate(123.86659240722656,79.87974548339844)"/>
<path d="M0 0 C2.23828125 1.41015625 2.23828125 1.41015625 4.3125 3.0625 C5.00988281 3.61035156 5.70726563 4.15820312 6.42578125 4.72265625 C6.94527344 5.14417969 7.46476562 5.56570312 8 6 C7.34 6.66 6.68 7.32 6 8 C5.67 7.01 5.34 6.02 5 5 C4.0925 5.04125 3.185 5.0825 2.25 5.125 C-1 5 -1 5 -3.0625 3.875 C-5.06941377 2.72408714 -5.06941377 2.72408714 -7.625 3.6875 C-10.27508815 4.91435935 -10.27508815 4.91435935 -12 8 C-11.071875 8.2165625 -11.071875 8.2165625 -10.125 8.4375 C-8 9 -8 9 -6 10 C-6 11.32 -6 12.64 -6 14 C-4.35 14 -2.7 14 -1 14 C-0.67 14.99 -0.34 15.98 0 17 C0.66 17.33 1.32 17.66 2 18 C1.67 18.66 1.34 19.32 1 20 C-3.00920713 17.34694503 -7.00831679 14.67934901 -11 12 C-11.77730469 11.48050781 -12.55460937 10.96101562 -13.35546875 10.42578125 C-14.94139461 9.33688782 -16.47775814 8.1762778 -18 7 C-18 6.34 -18 5.68 -18 5 C-15.94587752 3.96241251 -13.88130395 2.9454966 -11.8125 1.9375 C-10.66394531 1.36902344 -9.51539062 0.80054687 -8.33203125 0.21484375 C-4.79747037 -1.0738414 -3.46989979 -1.29542925 0 0 Z M-3 1 C-2 3 -2 3 -2 3 Z " fill="#893E69" transform="translate(99,122)"/>
<path d="M0 0 C2 3 2 3 2.0625 5.25 C0.70723013 8.75775732 -1.36448046 10.47969452 -4.078125 13.01953125 C-7.26247329 16.30096333 -9.60141115 20.12535648 -12 24 C-12.99 23.67 -13.98 23.34 -15 23 C-14.59060025 16.23784552 -13.43046191 10.32837252 -11 4 C-10.33333333 6.66666667 -9.66666667 9.33333333 -9 12 C-4.7835599 10.43835552 -2.58130177 7.58514135 0 4 C0 2.68 0 1.36 0 0 Z " fill="#482238" transform="translate(101,27)"/>
<path d="M0 0 C2.39073445 3.82517513 2.55966552 7.59665524 3 12 C2.608125 11.484375 2.21625 10.96875 1.8125 10.4375 C0.9153125 9.7259375 0.9153125 9.7259375 0 9 C-2.65466049 9.23043864 -2.65466049 9.23043864 -5 10 C-5.66 9.01 -6.32 8.02 -7 7 C-7.66 8.98 -8.32 10.96 -9 13 C-9.99 12.67 -10.98 12.34 -12 12 C-13.1875 8.9375 -13.1875 8.9375 -14 6 C-13.13375 5.87625 -13.13375 5.87625 -12.25 5.75 C-9.81163978 5.14053634 -9.81163978 5.14053634 -8.0625 2.875 C-7.0415625 1.946875 -7.0415625 1.946875 -6 1 C-3.25 1.25 -3.25 1.25 -1 2 C-0.67 1.34 -0.34 0.68 0 0 Z " fill="#CF3792" transform="translate(112,62)"/>
<path d="M0 0 C0.66 0 1.32 0 2 0 C2.103125 0.680625 2.20625 1.36125 2.3125 2.0625 C3.14725019 5.62915989 4.49472754 8.66222194 6 12 C0.555 15.96 0.555 15.96 -5 20 C-6 18 -6 18 -5.56274414 16.12060547 C-5.30614014 15.37697754 -5.04953613 14.63334961 -4.78515625 13.8671875 C-4.51123047 13.06152344 -4.23730469 12.25585938 -3.95507812 11.42578125 C-3.51325195 10.16314453 -3.51325195 10.16314453 -3.0625 8.875 C-2.77181641 8.02550781 -2.48113281 7.17601562 -2.18164062 6.30078125 C-1.46106999 4.19813251 -0.73361685 2.09812523 0 0 Z " fill="#6182B1" transform="translate(48,155)"/>
<path d="M0 0 C3 2 3 2 3.73046875 4.1640625 C3.88128906 4.97617188 4.03210938 5.78828125 4.1875 6.625 C4.34605469 7.44226563 4.50460938 8.25953125 4.66796875 9.1015625 C4.83232422 10.04128906 4.83232422 10.04128906 5 11 C7.41645782 11.16687448 7.41645782 11.16687448 10 11 C10.66 10.34 11.32 9.68 12 9 C13.98821313 8.60235737 15.98944339 8.26224651 18 8 C18.66 9.98 19.32 11.96 20 14 C19.236875 14.12375 18.47375 14.2475 17.6875 14.375 C14.79732864 14.88102792 14.79732864 14.88102792 12 17 C11.67 16.34 11.34 15.68 11 15 C9.02 15.99 9.02 15.99 7 17 C7 17.33 7 17.66 7 18 C6.67619874 19.33568021 6.34342449 20.66923011 6 22 C4.9929564 18.8980736 3.99559195 15.79311902 3 12.6875 C2.71382813 11.80642578 2.42765625 10.92535156 2.1328125 10.01757812 C1.86210938 9.17001953 1.59140625 8.32246094 1.3125 7.44921875 C1.06113281 6.66893311 0.80976562 5.88864746 0.55078125 5.0847168 C0 3 0 3 0 0 Z " fill="#DC3498" transform="translate(110,104)"/>
<path d="M0 0 C4.46355894 0.4028218 4.46355894 0.4028218 8.9375 0.5625 C9.4325 2.0475 9.4325 2.0475 9.9375 3.5625 C5.54601064 5.63625887 5.54601064 5.63625887 2.875 5.3125 C0.9375 4.5625 0.9375 4.5625 -0.91796875 3.49609375 C-3.41617106 2.40853391 -4.63910443 2.48707722 -7.3125 2.875 C-12.10203371 3.47908533 -16.87063257 3.84112225 -21.6875 4.125 C-22.77272949 4.19037964 -22.77272949 4.19037964 -23.87988281 4.25708008 C-25.6073239 4.3605358 -27.33489847 4.46175897 -29.0625 4.5625 C-29.0625 3.5725 -29.0625 2.5825 -29.0625 1.5625 C-23.38823064 0.83033621 -17.94688843 0.47972188 -12.2265625 0.625 C-7.92347452 0.50072309 -4.49313793 -0.37636419 0 0 Z " fill="#5C7AA8" transform="translate(156.0625,87.4375)"/>
<path d="M0 0 C0.84062397 3.09773244 1.08935201 5.78332751 1 9 C0.01 9.33 -0.98 9.66 -2 10 C-1.01 11.485 -1.01 11.485 0 13 C0.66 12.67 1.32 12.34 2 12 C2 12.66 2 13.32 2 14 C2.66 14 3.32 14 4 14 C4 14.66 4 15.32 4 16 C4.99 16.33 5.98 16.66 7 17 C6.0625 19 6.0625 19 4 21 C0.97465051 21.36475845 -1.96663814 21.22893297 -5 21 C-4.5003731 13.50559651 -2.56235522 7.04349737 0 0 Z " fill="#A02971" transform="translate(84,50)"/>
<path d="M0 0 C1.32 0.33 2.64 0.66 4 1 C4.50636607 2.74816858 5.00484619 4.49862263 5.5 6.25 C5.7784375 7.22453125 6.056875 8.1990625 6.34375 9.203125 C7 12 7 12 7 16 C3.04 16 -0.92 16 -5 16 C-5 15.67 -5 15.34 -5 15 C-2.69 15 -0.38 15 2 15 C1.67 12.36 1.34 9.72 1 7 C0.34 7 -0.32 7 -1 7 C-1.625 5.1875 -1.625 5.1875 -2 3 C-1.34 2.01 -0.68 1.02 0 0 Z " fill="#739BD4" transform="translate(90,78)"/>
<path d="M0 0 C10.23 0 20.46 0 31 0 C30.67 2.31 30.34 4.62 30 7 C30.66 7 31.32 7 32 7 C32.495 10.96 32.495 10.96 33 15 C32.505 13.515 32.505 13.515 32 12 C31.34 12 30.68 12 30 12 C28.22742965 8.60899585 26.93411993 5.7364797 26 2 C13.13 1.505 13.13 1.505 0 1 C0 0.67 0 0.34 0 0 Z " fill="#7FA9E2" transform="translate(59,78)"/>
<path d="M0 0 C5.94 0 11.88 0 18 0 C18 0.33 18 0.66 18 1 C16.824375 1.12375 16.824375 1.12375 15.625 1.25 C12.85250896 1.72806339 12.85250896 1.72806339 11.6875 4.0625 C11.460625 4.701875 11.23375 5.34125 11 6 C12.32 6.66 13.64 7.32 15 8 C11.57047851 8.61555514 9.54753297 8.34721603 6.59765625 6.4765625 C4.32369019 4.71630441 2.10945573 2.95476231 0 1 C0 0.67 0 0.34 0 0 Z " fill="#333A50" transform="translate(11,79)"/>
<path d="M0 0 C1.58246707 -0.08153933 3.16616273 -0.13943557 4.75 -0.1875 C6.07257813 -0.23970703 6.07257813 -0.23970703 7.421875 -0.29296875 C10.44671583 0.05076316 11.75583602 1.00227459 14 3 C13.67 3.33 13.34 3.66 13 4 C13.061875 5.8253125 13.061875 5.8253125 13.125 7.6875 C13.19165071 11.82724975 12.05670243 14.38020372 10 18 C9.31363375 20.23525035 9.31363375 20.23525035 9 22 C8.67 22 8.34 22 8 22 C7.03860918 16.42393327 7.0552489 13.3766648 9 8 C9.07522969 5.66787973 9.09325876 3.3314689 9 1 C6.03 1 3.06 1 0 1 C0 0.67 0 0.34 0 0 Z " fill="#7CA7E4" transform="translate(58,93)"/>
<path d="M0 0 C0.33 1.32 0.66 2.64 1 4 C-0.7873962 5.33905267 -2.58004953 6.67109066 -4.375 8 C-5.37273437 8.7425 -6.37046875 9.485 -7.3984375 10.25 C-10 12 -10 12 -12 12 C-9.7323689 3.80560579 -9.7323689 3.80560579 -7.125 0.9375 C-4.6000728 -0.17643847 -2.73150853 -0.22762571 0 0 Z " fill="#739DD8" transform="translate(154,95)"/>
<path d="M0 0 C1.91864771 0.25642304 3.83490994 0.53073436 5.75 0.8125 C6.81734375 0.96332031 7.8846875 1.11414063 8.984375 1.26953125 C12.05451094 2.01320407 13.66080478 2.92765472 16 5 C15.79375 5.598125 15.5875 6.19625 15.375 6.8125 C14.69328085 9.28450846 14.69328085 9.28450846 17 12 C13.38309168 10.31853173 10.13434498 8.20107633 6.8125 6 C5.74644531 5.29875 4.68039063 4.5975 3.58203125 3.875 C1 2 1 2 0 0 Z " fill="#495B7C" transform="translate(22,87)"/>
<path d="M0 0 C0.33 0.66 0.66 1.32 1 2 C1.66 2 2.32 2 3 2 C2.67 2.66 2.34 3.32 2 4 C1.01 6.31 0.02 8.62 -1 11 C-6.28 11 -11.56 11 -17 11 C-16.67 9.68 -16.34 8.36 -16 7 C-16 7.99 -16 8.98 -16 10 C-12.83511024 10.11252941 -10.03364663 9.94863217 -7 9 C-4.50066517 6.61380378 -2.77780897 3.94608344 -1 1 C-0.67 0.67 -0.34 0.34 0 0 Z " fill="#B34388" transform="translate(95,61)"/>
<path d="M0 0 C3.16419008 4.74628512 4.46313682 10.15468038 6.1875 15.5625 C6.56841797 16.72458984 6.94933594 17.88667969 7.34179688 19.08398438 C7.87450195 20.7459082 7.87450195 20.7459082 8.41796875 22.44140625 C8.74563232 23.45920166 9.0732959 24.47699707 9.41088867 25.52563477 C10 28 10 28 9 30 C5.18073088 25.48631832 3.65279372 20.90250682 4 15 C3.34 15 2.68 15 2 15 C0.53329887 9.77487721 -0.22577402 5.4185766 0 0 Z " fill="#DE50B3" transform="translate(115,72)"/>
<path d="M0 0 C3.96 0 7.92 0 12 0 C9.88486583 4.23026833 9.04951675 4.97524163 5 7 C2.6875 7.6875 2.6875 7.6875 1 8 C0.03601353 5.1080406 0 3.0005625 0 0 Z " fill="#7DB4F7" transform="translate(67,147)"/>
<path d="M0 0 C1.32 0.33 2.64 0.66 4 1 C8.40774487 17.70842825 8.40774487 17.70842825 9 26 C7.07176124 23.10764186 6.25666356 20.97140935 5.2734375 17.67578125 C4.9640625 16.64775391 4.6546875 15.61972656 4.3359375 14.56054688 C4.01882812 13.48869141 3.70171875 12.41683594 3.375 11.3125 C3.05015625 10.22904297 2.7253125 9.14558594 2.390625 8.02929688 C1.5892652 5.35416929 0.79258275 2.67773862 0 0 Z " fill="#F5E4FB" transform="translate(117,77)"/>
<path d="M0 0 C2.77734684 1.86708046 5.40209751 3.89202453 8 6 C7.34 6.66 6.68 7.32 6 8 C5.67 7.01 5.34 6.02 5 5 C4.0925 5.04125 3.185 5.0825 2.25 5.125 C-1 5 -1 5 -2.875 3.9375 C-6.31360602 2.42046793 -9.34281466 3.39046911 -13 4 C-5.40677966 -1.96610169 -5.40677966 -1.96610169 0 0 Z M-3 1 C-2 3 -2 3 -2 3 Z " fill="#AD4683" transform="translate(99,122)"/>
<path d="M0 0 C0.66 0.33 1.32 0.66 2 1 C3.33059914 4.99179743 2.81502739 7.26317891 1 11 C0.01 11 -0.98 11 -2 11 C-3.8125 8.8125 -3.8125 8.8125 -5 6 C-4.375 3.25 -4.375 3.25 -3 1 C-2.01 0.67 -1.02 0.34 0 0 Z " fill="#51688E" transform="translate(41,89)"/>
<path d="M0 0 C1.32 0 2.64 0 4 0 C4 0.99 4 1.98 4 3 C6.31 3.33 8.62 3.66 11 4 C11 4.99 11 5.98 11 7 C12.32 7.33 13.64 7.66 15 8 C14.01 9.485 14.01 9.485 13 11 C9.41213553 9.34406255 6.16216412 7.37162309 3 5 C3 4.01 3 3.02 3 2 C2.01 1.67 1.02 1.34 0 1 C0 0.67 0 0.34 0 0 Z " fill="#6A3556" transform="translate(98,138)"/>
<path d="M0 0 C2.375 -0.125 2.375 -0.125 5 0 C5.66 0.66 6.32 1.32 7 2 C9.06874034 2.6425235 9.06874034 2.6425235 11 3 C10.67 4.32 10.34 5.64 10 7 C8.25 7.6875 8.25 7.6875 6 8 C3.75 6.6875 3.75 6.6875 2 5 C2 4.34 2 3.68 2 3 C1.01 3 0.02 3 -1 3 C-0.67 2.01 -0.34 1.02 0 0 Z " fill="#9B2F6F" transform="translate(99,127)"/>
<path d="M0 0 C1.875 0.625 1.875 0.625 4 2 C5.25 5.125 5.25 5.125 6 8 C3.525 7.01 3.525 7.01 1 6 C0.67 7.32 0.34 8.64 0 10 C-0.66 10 -1.32 10 -2 10 C-2 9.01 -2 8.02 -2 7 C-2.66 6.67 -3.32 6.34 -4 6 C-2.68 4.02 -1.36 2.04 0 0 Z " fill="#AA367B" transform="translate(128,122)"/>
<path d="M0 0 C0.66 0.99 1.32 1.98 2 3 C2.66 2.01 3.32 1.02 4 0 C4.66 0.33 5.32 0.66 6 1 C4.35 6.28 2.7 11.56 1 17 C0.67 17 0.34 17 0 17 C-0.94693195 13.2983569 -1.30443767 11.60887535 0.4375 8.125 C0.953125 7.42375 1.46875 6.7225 2 6 C1.01 5.67 0.02 5.34 -1 5 C-0.67 3.35 -0.34 1.7 0 0 Z " fill="#82B2F4" transform="translate(73,109)"/>
<path d="M0 0 C0.66 0 1.32 0 2 0 C2 0.66 2 1.32 2 2 C2.99 2.33 3.98 2.66 5 3 C1.14376321 6.97674419 1.14376321 6.97674419 -2.11328125 7.04296875 C-4.08863015 6.7798228 -6.04718291 6.39718314 -8 6 C-7.67 5.34 -7.34 4.68 -7 4 C-6.67 3.01 -6.34 2.02 -6 1 C-5.34 1 -4.68 1 -4 1 C-4 1.66 -4 2.32 -4 3 C-2.68 3 -1.36 3 0 3 C0 2.01 0 1.02 0 0 Z " fill="#812559" transform="translate(120,134)"/>
<path d="M0 0 C0 0.99 0 1.98 0 3 C0.66 3.33 1.32 3.66 2 4 C-1.75 7 -1.75 7 -4 7 C-4 6.34 -4 5.68 -4 5 C-4.66 5 -5.32 5 -6 5 C-6 5.99 -6 6.98 -6 8 C-7.32 8 -8.64 8 -10 8 C-10 7.34 -10 6.68 -10 6 C-9.34 6 -8.68 6 -8 6 C-7.9175 5.38125 -7.835 4.7625 -7.75 4.125 C-7 2 -7 2 -5.125 0.75 C-3 0 -3 0 0 0 Z " fill="#95306D" transform="translate(126,129)"/>
<path d="M0 0 C0.84062397 3.09773244 1.08935201 5.78332751 1 9 C0.01 9.33 -0.98 9.66 -2 10 C-1.67 12.31 -1.34 14.62 -1 17 C-2.98 17.99 -2.98 17.99 -5 19 C-3.83795007 12.45150687 -2.26616615 6.25461856 0 0 Z " fill="#8B486F" transform="translate(84,50)"/>
<path d="M0 0 C0.5 2 0.5 2 1 4 C1.268125 4.61875 1.53625 5.2375 1.8125 5.875 C2.12371472 9.40210014 0.11574912 11.3402011 -2 14 C-2.66 14 -3.32 14 -4 14 C-3.71572583 12.41532272 -3.42225182 10.8322943 -3.125 9.25 C-2.96257813 8.36828125 -2.80015625 7.4865625 -2.6328125 6.578125 C-2.03203736 4.13052256 -1.22002883 2.19400143 0 0 Z " fill="#6687BB" transform="translate(53,140)"/>
<path d="M0 0 C0.33 0.66 0.66 1.32 1 2 C1.99 2 2.98 2 4 2 C4.33 1.34 4.66 0.68 5 0 C6.32 0 7.64 0 9 0 C8.75 1.875 8.75 1.875 8 4 C6.25 5.125 6.25 5.125 4 6 C2.63875 6.556875 2.63875 6.556875 1.25 7.125 C0.5075 7.41375 -0.235 7.7025 -1 8 C-0.67 5.36 -0.34 2.72 0 0 Z " fill="#69274D" transform="translate(85,48)"/>
<path d="M0 0 C1.0209375 0.2165625 1.0209375 0.2165625 2.0625 0.4375 C5.36273082 1.06945909 8.67144426 1.54313941 12 2 C12 2.99 12 3.98 12 5 C10.35 5.66 8.7 6.32 7 7 C7 6.34 7 5.68 7 5 C5.5459375 4.5978125 5.5459375 4.5978125 4.0625 4.1875 C3.051875 3.795625 2.04125 3.40375 1 3 C0.67 2.01 0.34 1.02 0 0 Z " fill="#6385B5" transform="translate(150,89)"/>
<path d="M0 0 C3 2 3 2 3.66015625 3.91796875 C3.79292969 4.66691406 3.92570312 5.41585937 4.0625 6.1875 C4.62957118 9.17663789 5.27697699 11.88924193 6.1875 14.8125 C6.9946573 17.97904018 6.91292822 19.01517795 6 22 C4.9929564 18.8980736 3.99559195 15.79311902 3 12.6875 C2.71382813 11.80642578 2.42765625 10.92535156 2.1328125 10.01757812 C1.86210938 9.17001953 1.59140625 8.32246094 1.3125 7.44921875 C1.06113281 6.66893311 0.80976562 5.88864746 0.55078125 5.0847168 C0 3 0 3 0 0 Z " fill="#DC50A2" transform="translate(110,104)"/>
<path d="M0 0 C0.99 0.99 1.98 1.98 3 3 C0.22719294 6.08089673 -2.06326356 7.68775452 -6 9 C-5.25 6.0625 -5.25 6.0625 -4 3 C-1.875 2.125 -1.875 2.125 0 2 C0 1.34 0 0.68 0 0 Z " fill="#75A7E8" transform="translate(148,98)"/>
<path d="M0 0 C1.125 1.5625 1.125 1.5625 2 4 C1.375 7.625 1.375 7.625 0 11 C-2.125 12.4375 -2.125 12.4375 -4 13 C-2.93204565 8.49933525 -1.85961414 4.2505466 0 0 Z " fill="#5974A1" transform="translate(46,162)"/>
<path d="M0 0 C1.125 1.625 1.125 1.625 2 4 C1.125 7.25 1.125 7.25 0 10 C-0.66 10 -1.32 10 -2 10 C-2.33 10.66 -2.66 11.32 -3 12 C-4.10102197 8.69693408 -3.95067299 7.28414305 -3 4 C-2.34 3.67 -1.68 3.34 -1 3 C-0.67 2.01 -0.34 1.02 0 0 Z " fill="#7EAFF2" transform="translate(70,128)"/>
<path d="M0 0 C2.98479194 4.47718792 4 8.63824093 4 14 C2.68 13.67 1.36 13.34 0 13 C0 8.71 0 4.42 0 0 Z " fill="#6585B8" transform="translate(93,80)"/>
<path d="M0 0 C0.99 0.33 1.98 0.66 3 1 C4.93751893 1.0471516 4.93751893 1.0471516 7.01171875 0.87890625 C8.14770508 0.80639648 8.14770508 0.80639648 9.30664062 0.73242188 C10.09232422 0.67634766 10.87800781 0.62027344 11.6875 0.5625 C12.48478516 0.51029297 13.28207031 0.45808594 14.10351562 0.40429688 C16.06936522 0.27480978 18.03473665 0.13809959 20 0 C20.33 0.99 20.66 1.98 21 3 C14.07 3 7.14 3 0 3 C0 2.01 0 1.02 0 0 Z " fill="#6282B8" transform="translate(125,90)"/>
<path d="M0 0 C3.81507216 0 5.67908998 0.29466783 9 2 C9.33 2.99 9.66 3.98 10 5 C8.68 5.33 7.36 5.66 6 6 C5.67 5.34 5.34 4.68 5 4 C3.35 4 1.7 4 0 4 C0 2.68 0 1.36 0 0 Z " fill="#6B91C9" transform="translate(148,92)"/>
<path d="M0 0 C0.99 0.33 1.98 0.66 3 1 C3 1.99 3 2.98 3 4 C3.66 4.66 4.32 5.32 5 6 C2.64046906 8.35953094 1.22104383 8.49141413 -2 9 C-1.41196203 5.97580475 -0.77321882 2.98241547 0 0 Z " fill="#7AABEA" transform="translate(66,149)"/>
<path d="M0 0 C2.14418558 3.21627837 2.67582137 5.19090105 3 9 C0.61692525 11.38307475 -0.75404497 11.43195787 -4 12 C-4.99 12.495 -4.99 12.495 -6 13 C-5.34 11.68 -4.68 10.36 -4 9 C-2.68 9 -1.36 9 0 9 C0 6.03 0 3.06 0 0 Z " fill="#E94AAA" transform="translate(125,103)"/>
<path d="M0 0 C0.99 0 1.98 0 3 0 C2.79503906 0.59167969 2.59007812 1.18335937 2.37890625 1.79296875 C1.0002429 5.83660816 -0.31750847 9.76855249 -1 14 C-1.99 14 -2.98 14 -4 14 C-3.67 12.02 -3.34 10.04 -3 8 C-2.34 8 -1.68 8 -1 8 C-0.67 5.36 -0.34 2.72 0 0 Z " fill="#DFF5FD" transform="translate(144,94)"/>
<path d="M0 0 C2.11044382 3.16566573 2.75552077 5.51197415 3.625 9.1875 C3.88539062 10.27417969 4.14578125 11.36085938 4.4140625 12.48046875 C4.60742188 13.31191406 4.80078125 14.14335938 5 15 C4.01 14.67 3.02 14.34 2 14 C1.67 12.35 1.34 10.7 1 9 C0.01 8.67 -0.98 8.34 -2 8 C-1.33333333 6.66666667 -0.66666667 5.33333333 0 4 C0 2.68 0 1.36 0 0 Z " fill="#A45684" transform="translate(107,46)"/>
<path d="M0 0 C0.94314127 3.41610225 1.08065117 6.45134864 1 10 C0.34 10 -0.32 10 -1 10 C-1.99 13.465 -1.99 13.465 -3 17 C-4.56393356 13.02623171 -3.36145292 10.18622097 -2.0625 6.25 C-1.68222656 5.07953125 -1.30195312 3.9090625 -0.91015625 2.703125 C-0.60980469 1.81109375 -0.30945313 0.9190625 0 0 Z " fill="#62515B" transform="translate(90,31)"/>
<path d="M0 0 C-2.77280706 3.08089673 -5.06326356 4.68775452 -9 6 C-9.66 4.68 -10.32 3.36 -11 2 C-10.01 2 -9.02 2 -8 2 C-4.77208445 -0.1519437 -3.71599191 -0.20086443 0 0 Z " fill="#425178" transform="translate(181,79)"/>
<path d="M0 0 C0.33 0 0.66 0 1 0 C0.25 6.75 0.25 6.75 -2 9 C-3.32 9 -4.64 9 -6 9 C-6 8.34 -6 7.68 -6 7 C-5.01 6.34 -4.02 5.68 -3 5 C-1.97695052 3.34738161 -0.97383946 1.68208635 0 0 Z " fill="#902965" transform="translate(85,62)"/>
<path d="M0 0 C2 3 2 3 1.9375 5.375 C0.6947055 8.8548246 -1.21564928 10.62311524 -4 13 C-4.66 13 -5.32 13 -6 13 C-4.86674509 10.45017645 -3.70098518 8.64821786 -1.875 6.5 C0.4 3.9875 0.4 3.9875 0 0 Z " fill="#44323A" transform="translate(101,27)"/>
<path d="M0 0 C0 3 0 3 -1.25 4.5625 C-3.07150781 6.05873856 -4.9004969 6.95024845 -7 8 C-7.33 8.66 -7.66 9.32 -8 10 C-9.32 9.67 -10.64 9.34 -12 9 C-8.04 6.03 -4.08 3.06 0 0 Z " fill="#E7F9FE" transform="translate(156,97)"/>
<path d="M0 0 C4.95 0.99 4.95 0.99 10 2 C10 2.99 10 3.98 10 5 C7.8125 5.3125 7.8125 5.3125 5 5 C2.1875 2.5 2.1875 2.5 0 0 Z " fill="#43516F" transform="translate(22,87)"/>
<path d="M0 0 C0.99 0 1.98 0 3 0 C3.99 2.64 4.98 5.28 6 8 C1.3697479 6.53781513 1.3697479 6.53781513 -0.375 4 C-1 2 -1 2 0 0 Z " fill="#5979A8" transform="translate(46,100)"/>
<path d="M0 0 C2.375 -0.1875 2.375 -0.1875 5 0 C5.66 0.99 6.32 1.98 7 3 C6.67 3.99 6.34 4.98 6 6 C5.34 5.34 4.68 4.68 4 4 C1.42938689 3.35232207 1.42938689 3.35232207 -1 3 C-0.67 2.01 -0.34 1.02 0 0 Z " fill="#A62772" transform="translate(99,127)"/>
<path d="M0 0 C-0.66 1.32 -1.32 2.64 -2 4 C-3.65 4 -5.3 4 -7 4 C-7.33 3.01 -7.66 2.02 -8 1 C-5.07175348 0.02391783 -3.04386724 -0.08226668 0 0 Z " fill="#8F4972" transform="translate(89,126)"/>
<path d="M0 0 C0 0.66 0 1.32 0 2 C0.66 2 1.32 2 2 2 C1.67 3.32 1.34 4.64 1 6 C0.34 5.01 -0.32 4.02 -1 3 C-2.65 3.33 -4.3 3.66 -6 4 C-6 3.01 -6 2.02 -6 1 C-4 0 -4 0 0 0 Z " fill="#DE3399" transform="translate(113,68)"/>
<path d="M0 0 C0 1.65 0 3.3 0 5 C0.66 5.33 1.32 5.66 2 6 C1.01 6.33 0.02 6.66 -1 7 C-1 6.34 -1 5.68 -1 5 C-2.32 4.67 -3.64 4.34 -5 4 C-4.67 3.01 -4.34 2.02 -4 1 C-2 0 -2 0 0 0 Z " fill="#A72773" transform="translate(109,55)"/>
<path d="M0 0 C0.33 0.66 0.66 1.32 1 2 C-5.14285714 7.57142857 -5.14285714 7.57142857 -10 8 C-6.88983545 4.71211176 -3.98381075 2.16264012 0 0 Z " fill="#E8F9FF" transform="translate(69,156)"/>
<path d="M0 0 C2.475 0.99 2.475 0.99 5 2 C5 5 5 5 4 8 C3.34 7.67 2.68 7.34 2 7 C1.4375 5.125 1.4375 5.125 1 3 C0.67 2.01 0.34 1.02 0 0 Z " fill="#933A70" transform="translate(110,131)"/>
<path d="M0 0 C1.15957207 3.47871621 0.77456651 4.34219645 -0.4375 7.6875 C-0.86869141 8.89986328 -0.86869141 8.89986328 -1.30859375 10.13671875 C-1.53675781 10.75160156 -1.76492187 11.36648437 -2 12 C-2.33 12 -2.66 12 -3 12 C-3.75 9.375 -3.75 9.375 -4 6 C-2.0625 2.625 -2.0625 2.625 0 0 Z " fill="#7FAFE8" transform="translate(76,114)"/>
<path d="M0 0 C2.31 0.33 4.62 0.66 7 1 C7.33 1.99 7.66 2.98 8 4 C8.66 4.33 9.32 4.66 10 5 C9.67 5.66 9.34 6.32 9 7 C7.4972763 6.02501855 5.99788037 5.04490611 4.5 4.0625 C3.6646875 3.51722656 2.829375 2.97195312 1.96875 2.41015625 C1.3190625 1.94480469 0.669375 1.47945312 0 1 C0 0.67 0 0.34 0 0 Z " fill="#864C6F" transform="translate(91,135)"/>
<path d="M0 0 C0.99 0 1.98 0 3 0 C3.66 2.31 4.32 4.62 5 7 C4.34 6.67 3.68 6.34 3 6 C3 5.34 3 4.68 3 4 C2.01 4.33 1.02 4.66 0 5 C-0.33 4.01 -0.66 3.02 -1 2 C-0.67 1.34 -0.34 0.68 0 0 Z " fill="#834065" transform="translate(132,133)"/>
<path d="M0 0 C0.66 0.33 1.32 0.66 2 1 C0.71372289 2.17260611 -0.57919783 3.3379283 -1.875 4.5 C-2.59429687 5.1496875 -3.31359375 5.799375 -4.0546875 6.46875 C-6 8 -6 8 -8 8 C-8 7.34 -8 6.68 -8 6 C-6.25 4.4921875 -6.25 4.4921875 -4 2.875 C-3.2575 2.33617188 -2.515 1.79734375 -1.75 1.2421875 C-1.1725 0.83226563 -0.595 0.42234375 0 0 Z " fill="#E9F2FC" transform="translate(175,83)"/>
<path d="M0 0 C2.45823172 3.68734758 3.01242616 6.69699971 4 11 C2 9.4375 2 9.4375 0 7 C-0.25 3.25 -0.25 3.25 0 0 Z " fill="#E55BB6" transform="translate(115,72)"/>
<path d="M0 0 C-0.66 1.32 -1.32 2.64 -2 4 C-3.32 4 -4.64 4 -6 4 C-5.67 3.01 -5.34 2.02 -5 1 C-3 0 -3 0 0 0 Z " fill="#C22F89" transform="translate(104,64)"/>
<path d="M0 0 C0.66 0.33 1.32 0.66 2 1 C2 3.31 2 5.62 2 8 C1.01 7.67 0.02 7.34 -1 7 C-0.67 4.69 -0.34 2.38 0 0 Z " fill="#5C3A4E" transform="translate(103,35)"/>
<path d="M0 0 C0.66 0.33 1.32 0.66 2 1 C0.515 3.475 0.515 3.475 -1 6 C-1.99 5.67 -2.98 5.34 -4 5 C-4 4.34 -4 3.68 -4 3 C-2 1.375 -2 1.375 0 0 Z " fill="#562542" transform="translate(90,45)"/>
</svg>
